<svg xmlns="http://www.w3.org/2000/svg" width="1900" height="1300" viewBox="0 0 1900 1300"><rect width="1900" height="1300" fill="#0d1117"/><text x="950" y="38" fill="#f1f5f9" font-size="26" font-family="Courier New,monospace" font-weight="bold" text-anchor="middle" dominant-baseline="middle">Wiring Diagram  ·  Waveshare ESP32-S3  +  MCP2517FD ×2  (20 MHz)  →  Tesla M3  X179</text><rect x="60" y="70" width="230" height="1150" rx="16" fill="#0c2040" stroke="#3b82f6" stroke-width="3"/><text x="175" y="120" fill="#93c5fd" font-size="24" font-family="Courier New,monospace" font-weight="bold" text-anchor="middle" dominant-baseline="middle">Waveshare</text><text x="175" y="152" fill="#4a7fb5" font-size="16" font-family="Courier New,monospace" font-weight="normal" text-anchor="middle" dominant-baseline="middle">ESP32-S3-RS485-CAN</text><circle cx="290" cy="190" r="7" fill="#60c8f0"/><text x="274" y="190" fill="#60c8f0" font-size="16" font-family="Courier New,monospace" font-weight="normal" text-anchor="end" dominant-baseline="middle">IO11  MOSI</text><circle cx="290" cy="330" r="7" fill="#b48ef7"/><text x="274" y="330" fill="#b48ef7" font-size="16" font-family="Courier New,monospace" font-weight="normal" text-anchor="end" dominant-baseline="middle">IO12  SCK</text><circle cx="290" cy="470" r="7" fill="#34d399"/><text x="274" y="470" fill="#34d399" font-size="16" font-family="Courier New,monospace" font-weight="normal" text-anchor="end" dominant-baseline="middle">IO13  MISO</text><circle cx="290" cy="600" r="7" fill="#f472b6"/><text x="274" y="600" fill="#f472b6" font-size="16" font-family="Courier New,monospace" font-weight="normal" text-anchor="end" dominant-baseline="middle">IO10  CS1</text><circle cx="290" cy="730" r="7" fill="#fbbf24"/><text x="274" y="730" fill="#fbbf24" font-size="16" font-family="Courier New,monospace" font-weight="normal" text-anchor="end" dominant-baseline="middle">IO14  INT1</text><circle cx="290" cy="870" r="7" fill="#ff6b8a"/><text x="274" y="870" fill="#ff6b8a" font-size="16" font-family="Courier New,monospace" font-weight="normal" text-anchor="end" dominant-baseline="middle">IO8   CS2</text><circle cx="290" cy="1000" r="7" fill="#fde68a"/><text x="274" y="1000" fill="#fde68a" font-size="16" font-family="Courier New,monospace" font-weight="normal" text-anchor="end" dominant-baseline="middle">IO9   INT2</text><circle cx="290" cy="1100" r="7" fill="#f87171"/><text x="274" y="1100" fill="#f87171" font-size="16" font-family="Courier New,monospace" font-weight="normal" text-anchor="end" dominant-baseline="middle">5V</text><circle cx="290" cy="1190" r="7" fill="#94a3b8"/><text x="274" y="1190" fill="#94a3b8" font-size="16" font-family="Courier New,monospace" font-weight="normal" text-anchor="end" dominant-baseline="middle">GND</text><rect x="80" y="1140" width="190" height="62" rx="8" fill="#071a0f" stroke="#22c55e" stroke-width="2"/><text x="175" y="1172" fill="#4ade80" font-size="13" font-family="Courier New,monospace" font-weight="normal" text-anchor="middle" dominant-baseline="middle">IO15 / IO16   Party CAN  (built-in TWAI)</text><rect x="660" y="75" width="280" height="540" rx="16" fill="#071a0f" stroke="#22c55e" stroke-width="3"/><text x="800" y="123" fill="#4ade80" font-size="22" font-family="Courier New,monospace" font-weight="bold" text-anchor="middle" dominant-baseline="middle">MCP2517FD  #1</text><text x="800" y="157" fill="#86efac" font-size="17" font-family="Courier New,monospace" font-weight="normal" text-anchor="middle" dominant-baseline="middle">Vehicle CAN  (VH)</text><circle cx="660" cy="265" r="6" fill="#60c8f0"/><text x="676" y="265" fill="#60c8f0" font-size="15" font-family="Courier New,monospace" font-weight="normal" text-anchor="start" dominant-baseline="middle">SDI</text><circle cx="660" cy="365" r="6" fill="#b48ef7"/><text x="676" y="365" fill="#b48ef7" font-size="15" font-family="Courier New,monospace" font-weight="normal" text-anchor="start" dominant-baseline="middle">SCK</text><circle cx="660" cy="465" r="6" fill="#34d399"/><text x="676" y="465" fill="#34d399" font-size="15" font-family="Courier New,monospace" font-weight="normal" text-anchor="start" dominant-baseline="middle">SDO</text><circle cx="660" cy="555" r="6" fill="#f472b6"/><text x="676" y="555" fill="#f472b6" font-size="15" font-family="Courier New,monospace" font-weight="normal" text-anchor="start" dominant-baseline="middle">/CS</text><circle cx="660" cy="645" r="6" fill="#fbbf24"/><text x="676" y="645" fill="#fbbf24" font-size="15" font-family="Courier New,monospace" font-weight="normal" text-anchor="start" dominant-baseline="middle">INT</text><circle cx="940" cy="205" r="6" fill="#f87171"/><text x="924" y="205" fill="#f87171" font-size="15" font-family="Courier New,monospace" font-weight="normal" text-anchor="end" dominant-baseline="middle">VCC</text><circle cx="940" cy="285" r="6" fill="#94a3b8"/><text x="924" y="285" fill="#94a3b8" font-size="15" font-family="Courier New,monospace" font-weight="normal" text-anchor="end" dominant-baseline="middle">GND</text><circle cx="940" cy="405" r="6" fill="#60a5fa"/><text x="924" y="405" fill="#60a5fa" font-size="15" font-family="Courier New,monospace" font-weight="normal" text-anchor="end" dominant-baseline="middle">CANH</text><circle cx="940" cy="525" r="6" fill="#a5c8ff"/><text x="924" y="525" fill="#a5c8ff" font-size="15" font-family="Courier New,monospace" font-weight="normal" text-anchor="end" dominant-baseline="middle">CANL</text><rect x="660" y="690" width="280" height="540" rx="16" fill="#1c0d00" stroke="#f97316" stroke-width="3"/><text x="800" y="738" fill="#fb923c" font-size="22" font-family="Courier New,monospace" font-weight="bold" text-anchor="middle" dominant-baseline="middle">MCP2517FD  #2</text><text x="800" y="772" fill="#fed7aa" font-size="17" font-family="Courier New,monospace" font-weight="normal" text-anchor="middle" dominant-baseline="middle">Chassis CAN  (PRTY)</text><circle cx="660" cy="880" r="6" fill="#60c8f0"/><text x="676" y="880" fill="#60c8f0" font-size="15" font-family="Courier New,monospace" font-weight="normal" text-anchor="start" dominant-baseline="middle">SDI</text><circle cx="660" cy="980" r="6" fill="#b48ef7"/><text x="676" y="980" fill="#b48ef7" font-size="15" font-family="Courier New,monospace" font-weight="normal" text-anchor="start" dominant-baseline="middle">SCK</text><circle cx="660" cy="1080" r="6" fill="#34d399"/><text x="676" y="1080" fill="#34d399" font-size="15" font-family="Courier New,monospace" font-weight="normal" text-anchor="start" dominant-baseline="middle">SDO</text><circle cx="660" cy="1170" r="6" fill="#ff6b8a"/><text x="676" y="1170" fill="#ff6b8a" font-size="15" font-family="Courier New,monospace" font-weight="normal" text-anchor="start" dominant-baseline="middle">/CS</text><circle cx="660" cy="1260" r="6" fill="#fde68a"/><text x="676" y="1260" fill="#fde68a" font-size="15" font-family="Courier New,monospace" font-weight="normal" text-anchor="start" dominant-baseline="middle">INT</text><circle cx="940" cy="820" r="6" fill="#f87171"/><text x="924" y="820" fill="#f87171" font-size="15" font-family="Courier New,monospace" font-weight="normal" text-anchor="end" dominant-baseline="middle">VCC</text><circle cx="940" cy="900" r="6" fill="#94a3b8"/><text x="924" y="900" fill="#94a3b8" font-size="15" font-family="Courier New,monospace" font-weight="normal" text-anchor="end" dominant-baseline="middle">GND</text><circle cx="940" cy="1020" r="6" fill="#fb923c"/><text x="924" y="1020" fill="#fb923c" font-size="15" font-family="Courier New,monospace" font-weight="normal" text-anchor="end" dominant-baseline="middle">CANH</text><circle cx="940" cy="1140" r="6" fill="#fcd34d"/><text x="924" y="1140" fill="#fcd34d" font-size="15" font-family="Courier New,monospace" font-weight="normal" text-anchor="end" dominant-baseline="middle">CANL</text><rect x="1540" y="70" width="320" height="1150" rx="16" fill="#1a1200" stroke="#fbbf24" stroke-width="3"/><text x="1700" y="122" fill="#fde68a" font-size="24" font-family="Courier New,monospace" font-weight="bold" text-anchor="middle" dominant-baseline="middle">Tesla  M3</text><text x="1700" y="160" fill="#a16207" font-size="17" font-family="Courier New,monospace" font-weight="normal" text-anchor="middle" dominant-baseline="middle">X179  Connector</text><circle cx="1540" cy="290" r="9" fill="#4ade80"/><text x="1562" y="290" fill="#4ade80" font-size="16" font-family="Courier New,monospace" font-weight="normal" text-anchor="start" dominant-baseline="middle">Pin 13  Party CAN-H</text><circle cx="1540" cy="430" r="9" fill="#4ade80"/><text x="1562" y="430" fill="#4ade80" font-size="16" font-family="Courier New,monospace" font-weight="normal" text-anchor="start" dominant-baseline="middle">Pin 14  Party CAN-L</text><circle cx="1540" cy="600" r="9" fill="#60a5fa"/><text x="1562" y="600" fill="#60a5fa" font-size="16" font-family="Courier New,monospace" font-weight="normal" text-anchor="start" dominant-baseline="middle">Pin  9  Vehicle CAN-H</text><circle cx="1540" cy="730" r="9" fill="#a5c8ff"/><text x="1562" y="730" fill="#a5c8ff" font-size="16" font-family="Courier New,monospace" font-weight="normal" text-anchor="start" dominant-baseline="middle">Pin 10  Vehicle CAN-L</text><circle cx="1540" cy="910" r="9" fill="#fb923c"/><text x="1562" y="910" fill="#fb923c" font-size="16" font-family="Courier New,monospace" font-weight="normal" text-anchor="start" dominant-baseline="middle">Pin  2  PRTY CAN-H</text><circle cx="1540" cy="1040" r="9" fill="#fcd34d"/><text x="1562" y="1040" fill="#fcd34d" font-size="16" font-family="Courier New,monospace" font-weight="normal" text-anchor="start" dominant-baseline="middle">Pin  3  PRTY CAN-L</text><polyline points="290,190 410,190" fill="none" stroke="#60c8f0" stroke-width="3.5" stroke-linecap="round" stroke-linejoin="round"/><polyline points="410,190 410,880" fill="none" stroke="#60c8f0" stroke-width="3.5" stroke-linecap="round" stroke-linejoin="round"/><polyline points="410,265 660,265" fill="none" stroke="#60c8f0" stroke-width="3.5" stroke-linecap="round" stroke-linejoin="round"/><polyline points="410,880 660,880" fill="none" stroke="#60c8f0" stroke-width="3.5" stroke-linecap="round" stroke-linejoin="round"/><circle cx="410" cy="190" r="6" fill="#60c8f0"/><circle cx="410" cy="265" r="6" fill="#60c8f0"/><text x="398" y="572" fill="#60c8f0" font-size="12" font-family="Courier New,monospace" font-weight="normal" text-anchor="end" dominant-baseline="middle">MOSI</text><polyline points="290,330 440,330" fill="none" stroke="#b48ef7" stroke-width="3.5" stroke-linecap="round" stroke-linejoin="round"/><polyline points="440,330 440,980" fill="none" stroke="#b48ef7" stroke-width="3.5" stroke-linecap="round" stroke-linejoin="round"/><polyline points="440,365 660,365" fill="none" stroke="#b48ef7" stroke-width="3.5" stroke-linecap="round" stroke-linejoin="round"/><polyline points="440,980 660,980" fill="none" stroke="#b48ef7" stroke-width="3.5" stroke-linecap="round" stroke-linejoin="round"/><circle cx="440" cy="330" r="6" fill="#b48ef7"/><circle cx="440" cy="365" r="6" fill="#b48ef7"/><text x="440" y="672" fill="#b48ef7" font-size="12" font-family="Courier New,monospace" font-weight="normal" text-anchor="middle" dominant-baseline="middle">SCK</text><polyline points="290,470 470,470" fill="none" stroke="#34d399" stroke-width="3.5" stroke-linecap="round" stroke-linejoin="round"/><polyline points="470,470 470,1080" fill="none" stroke="#34d399" stroke-width="3.5" stroke-linecap="round" stroke-linejoin="round"/><polyline points="470,465 660,465" fill="none" stroke="#34d399" stroke-width="3.5" stroke-linecap="round" stroke-linejoin="round"/><polyline points="470,1080 660,1080" fill="none" stroke="#34d399" stroke-width="3.5" stroke-linecap="round" stroke-linejoin="round"/><circle cx="470" cy="470" r="6" fill="#34d399"/><circle cx="470" cy="465" r="6" fill="#34d399"/><text x="482" y="772" fill="#34d399" font-size="12" font-family="Courier New,monospace" font-weight="normal" text-anchor="start" dominant-baseline="middle">MISO</text><polyline points="290,600 642,600 642,555 660,555" fill="none" stroke="#f472b6" stroke-width="3" stroke-linecap="round" stroke-linejoin="round"/><polyline points="290,730 622,730 622,645 660,645" fill="none" stroke="#fbbf24" stroke-width="3" stroke-linecap="round" stroke-linejoin="round"/><polyline points="290,870 648,870 648,1170 660,1170" fill="none" stroke="#ff6b8a" stroke-width="3" stroke-linecap="round" stroke-linejoin="round"/><polyline points="290,1000 628,1000 628,1260 660,1260" fill="none" stroke="#fde68a" stroke-width="3" stroke-linecap="round" stroke-linejoin="round"/><polyline points="290,1100 380,1100" fill="none" stroke="#f87171" stroke-width="4" stroke-linecap="round" stroke-linejoin="round"/><polyline points="380,1100 380,205" fill="none" stroke="#f87171" stroke-width="4" stroke-linecap="round" stroke-linejoin="round"/><polyline points="380,205 660,205" fill="none" stroke="#f87171" stroke-width="4" stroke-linecap="round" stroke-linejoin="round"/><polyline points="380,820 660,820" fill="none" stroke="#f87171" stroke-width="4" stroke-linecap="round" stroke-linejoin="round"/><circle cx="380" cy="1100" r="6" fill="#f87171"/><circle cx="380" cy="820" r="6" fill="#f87171"/><text x="366" y="512" fill="#f87171" font-size="13" font-family="Courier New,monospace" font-weight="normal" text-anchor="end" dominant-baseline="middle">5V</text><polyline points="290,1190 500,1190" fill="none" stroke="#94a3b8" stroke-width="4" stroke-linecap="round" stroke-linejoin="round"/><polyline points="500,1190 500,285" fill="none" stroke="#94a3b8" stroke-width="4" stroke-linecap="round" stroke-linejoin="round"/><polyline points="500,285 660,285" fill="none" stroke="#94a3b8" stroke-width="4" stroke-linecap="round" stroke-linejoin="round"/><polyline points="500,900 660,900" fill="none" stroke="#94a3b8" stroke-width="4" stroke-linecap="round" stroke-linejoin="round"/><circle cx="500" cy="1190" r="6" fill="#94a3b8"/><circle cx="500" cy="900" r="6" fill="#94a3b8"/><text x="514" y="592" fill="#94a3b8" font-size="13" font-family="Courier New,monospace" font-weight="normal" text-anchor="start" dominant-baseline="middle">GND</text><polyline points="940,405 1140,405 1140,600 1540,600" fill="none" stroke="#60a5fa" stroke-width="4" stroke-linecap="round" stroke-linejoin="round"/><polyline points="940,525 1200,525 1200,730 1540,730" fill="none" stroke="#a5c8ff" stroke-width="4" stroke-linecap="round" stroke-linejoin="round"/><polyline points="940,1020 1260,1020 1260,910 1540,910" fill="none" stroke="#fb923c" stroke-width="4" stroke-linecap="round" stroke-linejoin="round"/><polyline points="940,1140 1320,1140 1320,1040 1540,1040" fill="none" stroke="#fcd34d" stroke-width="4" stroke-linecap="round" stroke-linejoin="round"/><polyline points="1380,290 1540,290" fill="none" stroke="#4ade80" stroke-width="3.5" stroke-linecap="round" stroke-linejoin="round" stroke-dasharray="12,7"/><polyline points="1380,430 1540,430" fill="none" stroke="#4ade80" stroke-width="3.5" stroke-linecap="round" stroke-linejoin="round" stroke-dasharray="12,7"/><text x="1460" y="262" fill="#4ade80" font-size="14" font-family="Courier New,monospace" font-weight="normal" text-anchor="middle" dominant-baseline="middle">Built-in SN65HVD230</text><text x="1140" y="48" fill="#60a5fa" font-size="13" font-family="Courier New,monospace" font-weight="normal" text-anchor="middle" dominant-baseline="middle">VH-H</text><text x="1200" y="48" fill="#a5c8ff" font-size="13" font-family="Courier New,monospace" font-weight="normal" text-anchor="middle" dominant-baseline="middle">VH-L</text><text x="1260" y="48" fill="#fb923c" font-size="13" font-family="Courier New,monospace" font-weight="normal" text-anchor="middle" dominant-baseline="middle">PR-H</text><text x="1320" y="48" fill="#fcd34d" font-size="13" font-family="Courier New,monospace" font-weight="normal" text-anchor="middle" dominant-baseline="middle">PR-L</text><line x1="60" y1="1205" x2="100" y2="1205" stroke="#60c8f0" stroke-width="5" stroke-linecap="round"/><text x="112" y="1205" fill="#60c8f0" font-size="15" font-family="Courier New,monospace" font-weight="normal" text-anchor="start" dominant-baseline="middle">MOSI  IO11</text><line x1="325" y1="1205" x2="365" y2="1205" stroke="#b48ef7" stroke-width="5" stroke-linecap="round"/><text x="377" y="1205" fill="#b48ef7" font-size="15" font-family="Courier New,monospace" font-weight="normal" text-anchor="start" dominant-baseline="middle">SCK   IO12</text><line x1="590" y1="1205" x2="630" y2="1205" stroke="#34d399" stroke-width="5" stroke-linecap="round"/><text x="642" y="1205" fill="#34d399" font-size="15" font-family="Courier New,monospace" font-weight="normal" text-anchor="start" dominant-baseline="middle">MISO  IO13</text><line x1="855" y1="1205" x2="895" y2="1205" stroke="#f472b6" stroke-width="5" stroke-linecap="round"/><text x="907" y="1205" fill="#f472b6" font-size="15" font-family="Courier New,monospace" font-weight="normal" text-anchor="start" dominant-baseline="middle">CS1   IO10</text><line x1="1120" y1="1205" x2="1160" y2="1205" stroke="#fbbf24" stroke-width="5" stroke-linecap="round"/><text x="1172" y="1205" fill="#fbbf24" font-size="15" font-family="Courier New,monospace" font-weight="normal" text-anchor="start" dominant-baseline="middle">INT1  IO14</text><line x1="1385" y1="1205" x2="1425" y2="1205" stroke="#ff6b8a" stroke-width="5" stroke-linecap="round"/><text x="1437" y="1205" fill="#ff6b8a" font-size="15" font-family="Courier New,monospace" font-weight="normal" text-anchor="start" dominant-baseline="middle">CS2   IO8</text><line x1="1650" y1="1205" x2="1690" y2="1205" stroke="#fde68a" stroke-width="5" stroke-linecap="round"/><text x="1702" y="1205" fill="#fde68a" font-size="15" font-family="Courier New,monospace" font-weight="normal" text-anchor="start" dominant-baseline="middle">INT2  IO9</text><line x1="60" y1="1247" x2="100" y2="1247" stroke="#f87171" stroke-width="5" stroke-linecap="round"/><text x="112" y="1247" fill="#f87171" font-size="15" font-family="Courier New,monospace" font-weight="normal" text-anchor="start" dominant-baseline="middle">5V</text><line x1="325" y1="1247" x2="365" y2="1247" stroke="#94a3b8" stroke-width="5" stroke-linecap="round"/><text x="377" y="1247" fill="#94a3b8" font-size="15" font-family="Courier New,monospace" font-weight="normal" text-anchor="start" dominant-baseline="middle">GND</text><line x1="590" y1="1247" x2="630" y2="1247" stroke="#60a5fa" stroke-width="5" stroke-linecap="round"/><text x="642" y="1247" fill="#60a5fa" font-size="15" font-family="Courier New,monospace" font-weight="normal" text-anchor="start" dominant-baseline="middle">Vehicle CAN-H</text><line x1="855" y1="1247" x2="895" y2="1247" stroke="#a5c8ff" stroke-width="5" stroke-linecap="round"/><text x="907" y="1247" fill="#a5c8ff" font-size="15" font-family="Courier New,monospace" font-weight="normal" text-anchor="start" dominant-baseline="middle">Vehicle CAN-L</text><line x1="1120" y1="1247" x2="1160" y2="1247" stroke="#fb923c" stroke-width="5" stroke-linecap="round"/><text x="1172" y="1247" fill="#fb923c" font-size="15" font-family="Courier New,monospace" font-weight="normal" text-anchor="start" dominant-baseline="middle">PRTY CAN-H</text><line x1="1385" y1="1247" x2="1425" y2="1247" stroke="#fcd34d" stroke-width="5" stroke-linecap="round"/><text x="1437" y="1247" fill="#fcd34d" font-size="15" font-family="Courier New,monospace" font-weight="normal" text-anchor="start" dominant-baseline="middle">PRTY CAN-L</text><line x1="1650" y1="1247" x2="1690" y2="1247" stroke="#4ade80" stroke-width="5" stroke-linecap="round"/><text x="1702" y="1247" fill="#4ade80" font-size="15" font-family="Courier New,monospace" font-weight="normal" text-anchor="start" dominant-baseline="middle">Party CAN (built-in)</text></svg>